# xmcd CD database file
#
# Track frame offsets:
#	150
#	9062
#	18217
#	31737
#	45962
#	57245
#	70930
#	80502
#	90770
#	102455
#	111682
#	123765
#	133685
#
# Disc length: 1901 seconds
#
# Revision: 0
# Processed by: cddbd v1.5.2PL0 Copyright (c) Steve Scherf et al.
# Submitted via: CDex 1.70beta2
#
DISCID=94076b0d
DTITLE=Jerry Lee Lewis - The Golden Cream Of Country
DYEAR=1900
DGENRE=Country
TTITLE0=Invitation to your party 
TTITLE1=Jambalaya
TTITLE2=Ramblin Rose
TTITLE3=Cold Cold Heart
TTITLE4=As Long As I Live
TTITLE5=Seasons Of My Heart
TTITLE6=One Minute Past Eternity
TTITLE7=I Cant Trust Me In Your Arms Any More
TTITLE8=Frankie and Johnny
TTITLE9=Home
TTITLE10=How's My Ex Treating You
TTITLE11=Love Sick Blues
TTITLE12=Obby Dooby
EXTD=
EXTT0=
EXTT1=
EXTT2=
EXTT3=
EXTT4=
EXTT5=
EXTT6=
EXTT7=
EXTT8=
EXTT9=
EXTT10=
EXTT11=
EXTT12=
PLAYORDER=
